<svg xmlns="http://www.w3.org/2000/svg" xmlns:xlink="http://www.w3.org/1999/xlink" style="vertical-align:-.255ex" width=".944ex" height="1.509ex" viewBox="0 -540.2 406.5 649.8"><defs><path id="a" stroke-width="1" d="M227-11q-78 0-132 52T40 174q0 88 47 148 34 45 86 74t114 34q2 1 42 1h38q15-5 15-20 0-26-41-26h-29q-121 0-158-108l-4-12h177q13-9 13-19 0-18-20-27H138v-2q-10-30-10-74 0-66 32-91t71-26q27 0 53 10t42 21 17 11q7 0 11-10t4-19q0-3-1-4-3-4-20-14T289 0t-62-11z"/></defs><use fill="currentColor" stroke="currentColor" stroke-width="0" transform="scale(1 -1)" xlink:href="#a"/></svg>