<svg xmlns="http://www.w3.org/2000/svg" xmlns:xlink="http://www.w3.org/1999/xlink" style="vertical-align:-.755ex" width="38.207ex" height="2.634ex" viewBox="0 -809.3 16450.4 1134.2"><defs><path id="i" stroke-width="1" d="M84 250q0 122 82 200t194 89h17q16 0 42 1t50 0h99q15-8 15-20 0-9-13-19l-104-1q-111-1-137-6-49-12-87-36t-59-49-36-55-18-48-5-34v-2h444q15-8 15-20t-15-20H124v-2q0-21 10-51t33-65 64-64 97-41q27-6 138-7h104q13-10 13-20 0-12-15-20H446q-18 0-29-1-155 0-245 86-88 82-88 205z"/><path id="a" stroke-width="1" d="M130 622q-7 7-11 9t-16 3-43 3H27v46h249q39 0 55 1 88 0 140-13t96-55q57-53 57-127 0-68-51-117t-122-65q-22-5-123-6h-94V181q0-119 3-123 8-11 67-12h33V0h-11q-21 3-144 3Q47 3 38 0H27v46h33q42 1 51 3t19 12v561zm377-134q0 26-1 40t-6 36-17 33-33 23-53 15q-12 2-90 2h-21q-49 0-52-9-3-4-3-145V342h108q51 0 84 7t58 33q26 29 26 106z"/><path id="c" stroke-width="1" d="M118-250V750h137v-40h-97v-920h97v-40H118z"/><path id="d" stroke-width="1" d="M576 668q0 20 30 40t54 20q16 0 15-16V571q0-162 13-319 8-130 32-195 2-4 3-7t5-4 4-3 5-2 6-2l11 6q34 16 49 16 16 0 16-14-1-4-5-12-15-20-59-42t-80-23q-16 0-27 5T630-8t-9 19-7 23q-11 43-15 72t-5 40-3 14v3H460l-131 1-13-19Q241 35 196-7t-77-43-60 26-29 67q0 32 16 57t28 25q7 0 9-5t5-16 8-20q22-27 55-27 38 0 126 125 155 218 265 443l17 34h8q7 0 8 1t1 8zm8-419q-5 84-7 137t-2 87-1 47v61l-11-21q-66-134-151-270l-40-62-2-4h1l12 4 10 4h193l-2 17z"/><path id="e" stroke-width="1" d="M94 250q0 69 10 131t23 107 37 88 38 67 42 52 33 34 25 21h17q14 0 14-9 0-3-17-21t-41-53-49-86-42-138-17-193 17-192 41-139 49-86 42-53 17-21q0-9-15-9h-16l-28 24q-94 85-137 212T94 250z"/><path id="f" stroke-width="1" d="M287 628q0 7-57 9-23 0-30 1t-7 9q0 8 4 20t7 15q2 1 199 1 167-1 187-1t40-6q72-17 122-79t51-166q0-156-107-280T444 3l-14-2-194-1H72Q48 0 41 2t-8 9q0 2 3 14 4 16 8 18t23 3q27 0 60 3 14 3 19 12 3 4 72 278t69 289zm416-159q0 38-11 68t-26 47-37 29-39 16-35 7h-43q-17 0-33 1h-43q-44 0-50-10-2-4-73-288T242 52q0-4 11-4t77-1h19q14 0 24-1 126 0 208 82 36 36 59 84t43 127 20 130z"/><path id="g" stroke-width="1" d="M213 578l-13-5q-14-5-40-10t-58-7H83v46h19q47 2 87 15t56 24 28 22q2 3 12 3 9 0 17-6V361l1-300q7-7 12-9t24-4 62-2h26V0h-11q-21 3-159 3-136 0-157-3H88v46h64q16 0 25 1t16 3 8 2 6 5 6 4v517z"/><path id="h" stroke-width="1" d="M60 749l4 1h22l28-24q94-85 137-212t43-264q0-68-10-131T261 12t-37-88-38-67-41-51-32-33-23-19l-4-4H63q-3 0-5 3t-3 9q1 1 11 13Q221-64 221 250T66 725q-10 12-11 13 0 8 5 11z"/><path id="b" stroke-width="1" d="M36 46h14q39 0 47 14v31q0 14 1 31t0 39 0 42v125l-1 23q-3 19-14 25t-45 9H20v23q0 23 2 23l10 1q10 1 28 2t36 2q16 1 35 2t29 3 11 1h3v-69q39 68 97 68h6q45 0 66-22t21-46q0-21-13-36t-38-15q-25 0-37 16t-13 34q0 9 2 16t5 12 3 5q-2 2-23-4-16-8-24-15-47-45-47-179v-53-27-26q0-12 1-20t0-15v-5q1-2 3-4t5-3 5-3 7-2 7-1 9-1 9 0 10-1 10 0h31V0h-9q-18 3-127 3Q37 3 28 0h-8v46h16z"/><path id="j" stroke-width="1" d="M308 24q59 0 108 52t50 121q0 63-52 87-106 27-136 37t-42 20q-60 42-60 121 0 61 32 111t65 75q29 25 70 40t64 16h18q96 0 139-64 1 0 13 13t26 29 20 22h4q3 0 5 1 13 0 13-7t-28-121-32-118-16-3q-20 0-20 9 0 6 1 10 0 3 1 19t2 26q0 34-9 59t-18 37-25 25q-36 21-82 21-57 0-106-46t-50-106q0-30 15-52t41-31q4-2 70-19t67-18q34-11 66-48t32-100q0-26-8-56-5-22-18-49t-36-59-66-60-94-38q-12-2-34-2-99 0-154 55l-10 11-28-31Q83-14 78-18t-13-4q-13 0-13 8 0 3 58 235 2 6 20 6h13q6-6 6-11 0-2-1-9t-4-21-2-33q2-39 18-66t43-40 52-18 53-5z"/><path id="k" stroke-width="1" d="M22 710v40h137V-250H22v40h97v920H22z"/><path id="l" stroke-width="1" d="M674 636q8 0 14-6t6-15-7-14q-1-1-270-129L151 346l248-118Q687 92 691 87q3-6 3-11 0-18-18-20h-6L382 192Q92 329 90 331q-7 5-7 17 1 11 13 17 8 4 286 135t283 134q4 2 9 2zM84-118q0 10 15 20h579q16-6 16-20 0-12-15-20H98q-14 7-14 20z"/><path id="m" stroke-width="1" d="M39 168q0 57 19 104t49 78 67 52 70 31 63 9h3q45 0 78-22t33-65q0-90-111-118-49-13-134-14-37 0-38-2 0-2-6-35t-7-58q0-47 21-74t63-28 93 19 92 66q9 10 12 10 4 0 13-9t10-14-9-16-30-27-46-31-63-25-76-10q-79 0-122 53T39 168zm334 185q-6 52-68 52-33 0-61-14t-45-34-29-41-16-36-5-19q0-1 20-1 113 0 158 24t46 69z"/><path id="n" stroke-width="1" d="M227-11q-78 0-132 52T40 174q0 88 47 148 34 45 86 74t114 34q2 1 42 1h38q15-5 15-20 0-26-41-26h-29q-121 0-158-108l-4-12h177q13-9 13-19 0-18-20-27H138v-2q-10-30-10-74 0-66 32-91t71-26q27 0 53 10t42 21 17 11q7 0 11-10t4-19q0-3-1-4-3-4-20-14T289 0t-62-11z"/><path id="o" stroke-width="1" d="M630 29q0-20-21-20-5 0-22 16t-94 93L389 222 284 117Q178 13 175 11q-4-2-7-2-8 0-14 6t-7 14q0 7 14 22t94 95l104 104-104 104q-81 81-94 95t-14 22q0 9 6 14t15 5q5 0 7-1 3-2 109-106l105-105 104 104q77 77 94 93t22 16q21 0 21-20 0-7-10-18t-98-98L418 250l104-105q84-84 96-97t12-19z"/><path id="p" stroke-width="1" d="M109 429q-27 0-43 18t-16 44q0 71 53 123t132 52q91 0 152-56t62-145q0-43-20-82t-48-68-80-74q-36-31-100-92l-59-56 76-1q157 0 167 5 7 2 24 89v3h40v-3q-1-3-13-91T421 3V0H50v31q0 7 6 15t30 35q29 32 50 56 9 10 34 37t34 37 29 33 28 34 23 30 21 32 15 29 13 32 7 30 3 33q0 63-34 109t-97 46q-33 0-58-17t-35-33-10-19q0-1 5-1 18 0 37-14t19-46q0-25-16-42t-45-18z"/><path id="q" stroke-width="1" d="M78 35v25l16 43 43 18q28 0 50-25t23-88q0-35-9-68t-21-57-26-41-24-27-13-9q-4 0-13 9t-9 13q0 4 11 16t25 30 26 50 16 73V9l-1-1q-2-1-5-2t-6-3-9-2-12-1q-27 0-44 17z"/></defs><g fill="currentColor" stroke="currentColor" stroke-width="0" transform="scale(1 -1)"><use xlink:href="#a"/><use x="681" xlink:href="#b"/><use x="1074" xlink:href="#c"/><use x="1352" xlink:href="#d"/><use x="2172" xlink:href="#e"/><g transform="translate(2561)"><use xlink:href="#f"/><use x="1171" y="-213" transform="scale(.707)" xlink:href="#g"/></g><use x="3843" xlink:href="#h"/><use x="4511" xlink:href="#i"/><use x="5456" xlink:href="#j"/><use x="6101" xlink:href="#k"/><use x="6658" xlink:href="#l"/><g transform="translate(7714)"><use xlink:href="#m"/><use x="659" y="583" transform="scale(.707)" xlink:href="#n"/></g><use x="8790" xlink:href="#o"/><g transform="translate(9791)"><use xlink:href="#a"/><use x="681" xlink:href="#b"/></g><use x="10865" xlink:href="#c"/><use x="11143" xlink:href="#d"/><use x="11963" xlink:href="#e"/><g transform="translate(12352)"><use xlink:href="#f"/><use x="1171" y="-213" transform="scale(.707)" xlink:href="#p"/></g><use x="13635" xlink:href="#h"/><use x="14302" xlink:href="#i"/><use x="15247" xlink:href="#j"/><use x="15893" xlink:href="#k"/><use x="16171" xlink:href="#q"/></g></svg>